<<<<<<< HEAD
<mxfile host="app.diagrams.net" modified="2023-09-29T16:05:45.843Z" agent="Mozilla/5.0 (Windows NT 10.0; Win64; x64) AppleWebKit/537.36 (KHTML, like Gecko) Chrome/117.0.0.0 Safari/537.36" etag="GkIh1u0V7M1d4YkxtHqG" version="22.0.0" type="device">
  <diagram name="Page-1" id="2YBvvXClWsGukQMizWep">
    <mxGraphModel dx="1550" dy="328" grid="1" gridSize="10" guides="1" tooltips="1" connect="1" arrows="1" fold="1" page="1" pageScale="1" pageWidth="850" pageHeight="1100" math="0" shadow="0">
      <root>
        <mxCell id="0" />
        <mxCell id="1" parent="0" />
        <mxCell id="jZs6XVhiPtIK_qM_JSvM-1" value="LogController" style="rounded=0;whiteSpace=wrap;html=1;" parent="1" vertex="1">
          <mxGeometry x="210" y="60" width="120" height="60" as="geometry" />
        </mxCell>
        <mxCell id="jZs6XVhiPtIK_qM_JSvM-2" value="usDAO:UserDAO" style="rounded=0;whiteSpace=wrap;html=1;" parent="1" vertex="1">
          <mxGeometry x="440" y="60" width="120" height="60" as="geometry" />
        </mxCell>
        <mxCell id="jZs6XVhiPtIK_qM_JSvM-4" value="DB" style="shape=cylinder3;whiteSpace=wrap;html=1;boundedLbl=1;backgroundOutline=1;size=15;" parent="1" vertex="1">
          <mxGeometry x="900" y="50" width="60" height="80" as="geometry" />
        </mxCell>
        <mxCell id="jZs6XVhiPtIK_qM_JSvM-5" value="empDAO:EmployeeDAO" style="rounded=0;whiteSpace=wrap;html=1;" parent="1" vertex="1">
          <mxGeometry x="640" y="60" width="160" height="60" as="geometry" />
        </mxCell>
        <mxCell id="jZs6XVhiPtIK_qM_JSvM-6" value="" style="endArrow=none;dashed=1;html=1;dashPattern=1 3;strokeWidth=2;rounded=0;entryX=0.5;entryY=1;entryDx=0;entryDy=0;" parent="1" source="jZs6XVhiPtIK_qM_JSvM-23" target="jZs6XVhiPtIK_qM_JSvM-1" edge="1">
          <mxGeometry width="50" height="50" relative="1" as="geometry">
            <mxPoint x="270" y="881.4545288085938" as="sourcePoint" />
            <mxPoint x="560" y="230" as="targetPoint" />
          </mxGeometry>
        </mxCell>
        <mxCell id="jZs6XVhiPtIK_qM_JSvM-7" value="" style="endArrow=none;dashed=1;html=1;dashPattern=1 3;strokeWidth=2;rounded=0;entryX=0.5;entryY=1;entryDx=0;entryDy=0;" parent="1" source="jZs6XVhiPtIK_qM_JSvM-30" target="jZs6XVhiPtIK_qM_JSvM-2" edge="1">
          <mxGeometry width="50" height="50" relative="1" as="geometry">
            <mxPoint x="500" y="880" as="sourcePoint" />
            <mxPoint x="280" y="130" as="targetPoint" />
          </mxGeometry>
        </mxCell>
        <mxCell id="jZs6XVhiPtIK_qM_JSvM-8" value="" style="endArrow=none;dashed=1;html=1;dashPattern=1 3;strokeWidth=2;rounded=0;entryX=0.5;entryY=1;entryDx=0;entryDy=0;" parent="1" source="jZs6XVhiPtIK_qM_JSvM-69" target="jZs6XVhiPtIK_qM_JSvM-5" edge="1">
          <mxGeometry width="50" height="50" relative="1" as="geometry">
            <mxPoint x="720" y="860" as="sourcePoint" />
            <mxPoint x="290" y="140" as="targetPoint" />
          </mxGeometry>
        </mxCell>
        <mxCell id="jZs6XVhiPtIK_qM_JSvM-9" value="" style="endArrow=none;dashed=1;html=1;dashPattern=1 3;strokeWidth=2;rounded=0;entryX=0.5;entryY=1;entryDx=0;entryDy=0;entryPerimeter=0;" parent="1" source="jZs6XVhiPtIK_qM_JSvM-35" target="jZs6XVhiPtIK_qM_JSvM-4" edge="1">
          <mxGeometry width="50" height="50" relative="1" as="geometry">
            <mxPoint x="930" y="880" as="sourcePoint" />
            <mxPoint x="300" y="150" as="targetPoint" />
          </mxGeometry>
        </mxCell>
        <mxCell id="jZs6XVhiPtIK_qM_JSvM-14" value="Login Page" style="rounded=0;whiteSpace=wrap;html=1;" parent="1" vertex="1">
          <mxGeometry x="-40" y="60" width="120" height="60" as="geometry" />
        </mxCell>
        <mxCell id="jZs6XVhiPtIK_qM_JSvM-15" value="" style="endArrow=none;dashed=1;html=1;dashPattern=1 3;strokeWidth=2;rounded=0;entryX=0.5;entryY=1;entryDx=0;entryDy=0;" parent="1" source="jZs6XVhiPtIK_qM_JSvM-43" target="jZs6XVhiPtIK_qM_JSvM-14" edge="1">
          <mxGeometry width="50" height="50" relative="1" as="geometry">
            <mxPoint x="20" y="880" as="sourcePoint" />
            <mxPoint x="280" y="130" as="targetPoint" />
          </mxGeometry>
        </mxCell>
        <mxCell id="jZs6XVhiPtIK_qM_JSvM-16" value="Guest" style="shape=umlActor;verticalLabelPosition=bottom;verticalAlign=top;html=1;outlineConnect=0;" parent="1" vertex="1">
          <mxGeometry x="-250" y="60" width="30" height="60" as="geometry" />
        </mxCell>
        <mxCell id="jZs6XVhiPtIK_qM_JSvM-17" value="" style="endArrow=none;dashed=1;html=1;dashPattern=1 3;strokeWidth=2;rounded=0;" parent="1" edge="1">
          <mxGeometry width="50" height="50" relative="1" as="geometry">
            <mxPoint x="-240" y="870" as="sourcePoint" />
            <mxPoint x="-240" y="140" as="targetPoint" />
          </mxGeometry>
        </mxCell>
        <mxCell id="jZs6XVhiPtIK_qM_JSvM-19" value="" style="endArrow=classic;html=1;rounded=0;" parent="1" edge="1">
          <mxGeometry width="50" height="50" relative="1" as="geometry">
            <mxPoint x="-240" y="170" as="sourcePoint" />
            <mxPoint x="20" y="170" as="targetPoint" />
          </mxGeometry>
        </mxCell>
        <mxCell id="jZs6XVhiPtIK_qM_JSvM-20" value="Input Username and Password" style="edgeLabel;html=1;align=center;verticalAlign=middle;resizable=0;points=[];" parent="jZs6XVhiPtIK_qM_JSvM-19" vertex="1" connectable="0">
          <mxGeometry x="-0.0831" y="-1" relative="1" as="geometry">
            <mxPoint x="11" y="-11" as="offset" />
          </mxGeometry>
        </mxCell>
        <mxCell id="jZs6XVhiPtIK_qM_JSvM-21" value="" style="endArrow=classic;html=1;rounded=0;" parent="1" edge="1">
          <mxGeometry width="50" height="50" relative="1" as="geometry">
            <mxPoint x="20" y="190" as="sourcePoint" />
            <mxPoint x="270" y="190" as="targetPoint" />
          </mxGeometry>
        </mxCell>
        <mxCell id="jZs6XVhiPtIK_qM_JSvM-22" value="doPost()" style="edgeLabel;html=1;align=center;verticalAlign=middle;resizable=0;points=[];" parent="jZs6XVhiPtIK_qM_JSvM-21" vertex="1" connectable="0">
          <mxGeometry x="0.0136" y="-3" relative="1" as="geometry">
            <mxPoint y="-13" as="offset" />
          </mxGeometry>
        </mxCell>
        <mxCell id="jZs6XVhiPtIK_qM_JSvM-24" value="" style="endArrow=none;dashed=1;html=1;dashPattern=1 3;strokeWidth=2;rounded=0;entryX=0.5;entryY=1;entryDx=0;entryDy=0;" parent="1" target="jZs6XVhiPtIK_qM_JSvM-23" edge="1">
          <mxGeometry width="50" height="50" relative="1" as="geometry">
            <mxPoint x="270" y="881.4545288085938" as="sourcePoint" />
            <mxPoint x="270" y="120" as="targetPoint" />
          </mxGeometry>
        </mxCell>
        <mxCell id="jZs6XVhiPtIK_qM_JSvM-23" value="" style="rounded=0;whiteSpace=wrap;html=1;" parent="1" vertex="1">
          <mxGeometry x="265" y="190" width="10" height="500" as="geometry" />
        </mxCell>
        <mxCell id="jZs6XVhiPtIK_qM_JSvM-25" value="" style="endArrow=classic;html=1;rounded=0;" parent="1" edge="1">
          <mxGeometry width="50" height="50" relative="1" as="geometry">
            <mxPoint x="280" y="200" as="sourcePoint" />
            <mxPoint x="290" y="260" as="targetPoint" />
            <Array as="points">
              <mxPoint x="330" y="200" />
              <mxPoint x="330" y="260" />
            </Array>
          </mxGeometry>
        </mxCell>
        <mxCell id="jZs6XVhiPtIK_qM_JSvM-27" value="login()" style="edgeLabel;html=1;align=center;verticalAlign=middle;resizable=0;points=[];" parent="jZs6XVhiPtIK_qM_JSvM-25" vertex="1" connectable="0">
          <mxGeometry x="-0.0028" y="1" relative="1" as="geometry">
            <mxPoint as="offset" />
          </mxGeometry>
        </mxCell>
        <mxCell id="jZs6XVhiPtIK_qM_JSvM-26" value="" style="rounded=0;whiteSpace=wrap;html=1;" parent="1" vertex="1">
          <mxGeometry x="275" y="240" width="10" height="360" as="geometry" />
        </mxCell>
        <mxCell id="jZs6XVhiPtIK_qM_JSvM-28" value="" style="endArrow=classic;html=1;rounded=0;" parent="1" edge="1">
          <mxGeometry width="50" height="50" relative="1" as="geometry">
            <mxPoint x="290" y="280" as="sourcePoint" />
            <mxPoint x="490" y="280" as="targetPoint" />
          </mxGeometry>
        </mxCell>
        <mxCell id="jZs6XVhiPtIK_qM_JSvM-29" value="getUser(us, pw)" style="edgeLabel;html=1;align=center;verticalAlign=middle;resizable=0;points=[];" parent="jZs6XVhiPtIK_qM_JSvM-28" vertex="1" connectable="0">
          <mxGeometry x="0.0491" y="1" relative="1" as="geometry">
            <mxPoint y="-9" as="offset" />
          </mxGeometry>
        </mxCell>
        <mxCell id="jZs6XVhiPtIK_qM_JSvM-31" value="" style="endArrow=none;dashed=1;html=1;dashPattern=1 3;strokeWidth=2;rounded=0;entryX=0.5;entryY=1;entryDx=0;entryDy=0;" parent="1" target="jZs6XVhiPtIK_qM_JSvM-30" edge="1">
          <mxGeometry width="50" height="50" relative="1" as="geometry">
            <mxPoint x="500" y="880" as="sourcePoint" />
            <mxPoint x="500" y="120" as="targetPoint" />
          </mxGeometry>
        </mxCell>
        <mxCell id="jZs6XVhiPtIK_qM_JSvM-30" value="" style="rounded=0;whiteSpace=wrap;html=1;" parent="1" vertex="1">
          <mxGeometry x="495" y="280" width="10" height="160" as="geometry" />
        </mxCell>
        <mxCell id="jZs6XVhiPtIK_qM_JSvM-32" value="" style="endArrow=classic;html=1;rounded=0;entryX=0;entryY=0;entryDx=0;entryDy=0;" parent="1" target="jZs6XVhiPtIK_qM_JSvM-35" edge="1">
          <mxGeometry width="50" height="50" relative="1" as="geometry">
            <mxPoint x="510" y="290" as="sourcePoint" />
            <mxPoint x="920" y="290" as="targetPoint" />
          </mxGeometry>
        </mxCell>
        <mxCell id="jZs6XVhiPtIK_qM_JSvM-33" value="executeQuery()" style="edgeLabel;html=1;align=center;verticalAlign=middle;resizable=0;points=[];" parent="jZs6XVhiPtIK_qM_JSvM-32" vertex="1" connectable="0">
          <mxGeometry x="-0.1126" y="2" relative="1" as="geometry">
            <mxPoint x="-92" y="-8" as="offset" />
          </mxGeometry>
        </mxCell>
        <mxCell id="jZs6XVhiPtIK_qM_JSvM-36" value="" style="endArrow=none;dashed=1;html=1;dashPattern=1 3;strokeWidth=2;rounded=0;entryX=0.5;entryY=1;entryDx=0;entryDy=0;entryPerimeter=0;" parent="1" source="jZs6XVhiPtIK_qM_JSvM-73" target="jZs6XVhiPtIK_qM_JSvM-35" edge="1">
          <mxGeometry width="50" height="50" relative="1" as="geometry">
            <mxPoint x="930" y="880" as="sourcePoint" />
            <mxPoint x="930" y="130" as="targetPoint" />
          </mxGeometry>
        </mxCell>
        <mxCell id="jZs6XVhiPtIK_qM_JSvM-35" value="" style="rounded=0;whiteSpace=wrap;html=1;" parent="1" vertex="1">
          <mxGeometry x="925" y="290" width="10" height="50" as="geometry" />
        </mxCell>
        <mxCell id="jZs6XVhiPtIK_qM_JSvM-37" value="" style="endArrow=openThin;html=1;rounded=0;dashed=1;endFill=0;exitX=-0.125;exitY=0.824;exitDx=0;exitDy=0;exitPerimeter=0;" parent="1" source="jZs6XVhiPtIK_qM_JSvM-35" edge="1">
          <mxGeometry width="50" height="50" relative="1" as="geometry">
            <mxPoint x="920" y="330" as="sourcePoint" />
            <mxPoint x="510" y="330" as="targetPoint" />
          </mxGeometry>
        </mxCell>
        <mxCell id="jZs6XVhiPtIK_qM_JSvM-38" value="return Result" style="edgeLabel;html=1;align=center;verticalAlign=middle;resizable=0;points=[];" parent="jZs6XVhiPtIK_qM_JSvM-37" vertex="1" connectable="0">
          <mxGeometry x="-0.3048" y="2" relative="1" as="geometry">
            <mxPoint x="53" y="-12" as="offset" />
          </mxGeometry>
        </mxCell>
        <mxCell id="jZs6XVhiPtIK_qM_JSvM-39" value="" style="endArrow=openThin;html=1;rounded=0;dashed=1;endFill=0;exitX=0;exitY=0.5;exitDx=0;exitDy=0;" parent="1" source="jZs6XVhiPtIK_qM_JSvM-30" edge="1">
          <mxGeometry width="50" height="50" relative="1" as="geometry">
            <mxPoint x="480" y="360" as="sourcePoint" />
            <mxPoint x="289.6774193548387" y="360" as="targetPoint" />
          </mxGeometry>
        </mxCell>
        <mxCell id="jZs6XVhiPtIK_qM_JSvM-40" value="return null" style="edgeLabel;html=1;align=center;verticalAlign=middle;resizable=0;points=[];" parent="jZs6XVhiPtIK_qM_JSvM-39" vertex="1" connectable="0">
          <mxGeometry x="-0.3048" y="2" relative="1" as="geometry">
            <mxPoint x="-24" y="-12" as="offset" />
          </mxGeometry>
        </mxCell>
        <mxCell id="jZs6XVhiPtIK_qM_JSvM-44" value="" style="endArrow=none;dashed=1;html=1;dashPattern=1 3;strokeWidth=2;rounded=0;entryX=0.5;entryY=1;entryDx=0;entryDy=0;" parent="1" target="jZs6XVhiPtIK_qM_JSvM-43" edge="1">
          <mxGeometry width="50" height="50" relative="1" as="geometry">
            <mxPoint x="20" y="880" as="sourcePoint" />
            <mxPoint x="20" y="120" as="targetPoint" />
          </mxGeometry>
        </mxCell>
        <mxCell id="jZs6XVhiPtIK_qM_JSvM-43" value="" style="rounded=0;whiteSpace=wrap;html=1;" parent="1" vertex="1">
          <mxGeometry x="15" y="170" width="10" height="220" as="geometry" />
        </mxCell>
        <mxCell id="jZs6XVhiPtIK_qM_JSvM-45" value="" style="endArrow=openThin;html=1;rounded=0;dashed=1;endFill=0;exitX=-0.063;exitY=0.36;exitDx=0;exitDy=0;exitPerimeter=0;entryX=1.18;entryY=0.914;entryDx=0;entryDy=0;entryPerimeter=0;" parent="1" source="jZs6XVhiPtIK_qM_JSvM-23" target="jZs6XVhiPtIK_qM_JSvM-43" edge="1">
          <mxGeometry width="50" height="50" relative="1" as="geometry">
            <mxPoint x="260" y="370" as="sourcePoint" />
            <mxPoint x="33" y="370" as="targetPoint" />
          </mxGeometry>
        </mxCell>
        <mxCell id="jZs6XVhiPtIK_qM_JSvM-46" value="return login page" style="edgeLabel;html=1;align=center;verticalAlign=middle;resizable=0;points=[];" parent="jZs6XVhiPtIK_qM_JSvM-45" vertex="1" connectable="0">
          <mxGeometry x="-0.3048" y="2" relative="1" as="geometry">
            <mxPoint x="-24" y="-12" as="offset" />
          </mxGeometry>
        </mxCell>
        <mxCell id="jZs6XVhiPtIK_qM_JSvM-47" value="" style="endArrow=openThin;html=1;rounded=0;dashed=1;endFill=0;exitX=-0.207;exitY=0.95;exitDx=0;exitDy=0;exitPerimeter=0;" parent="1" source="jZs6XVhiPtIK_qM_JSvM-43" edge="1">
          <mxGeometry width="50" height="50" relative="1" as="geometry">
            <mxPoint y="380" as="sourcePoint" />
            <mxPoint x="-230" y="380" as="targetPoint" />
          </mxGeometry>
        </mxCell>
        <mxCell id="jZs6XVhiPtIK_qM_JSvM-48" value="send login error" style="edgeLabel;html=1;align=center;verticalAlign=middle;resizable=0;points=[];" parent="jZs6XVhiPtIK_qM_JSvM-47" vertex="1" connectable="0">
          <mxGeometry x="-0.3048" y="2" relative="1" as="geometry">
            <mxPoint x="-24" y="-12" as="offset" />
          </mxGeometry>
        </mxCell>
        <mxCell id="jZs6XVhiPtIK_qM_JSvM-53" value="[Account doesn&#39;t exist]" style="text;html=1;align=center;verticalAlign=middle;resizable=0;points=[];autosize=1;strokeColor=none;fillColor=none;" parent="1" vertex="1">
          <mxGeometry x="-240" y="330" width="140" height="30" as="geometry" />
        </mxCell>
        <mxCell id="jZs6XVhiPtIK_qM_JSvM-62" value="" style="endArrow=openThin;html=1;rounded=0;dashed=1;endFill=0;exitX=-0.224;exitY=0.933;exitDx=0;exitDy=0;exitPerimeter=0;" parent="1" source="jZs6XVhiPtIK_qM_JSvM-30" edge="1">
          <mxGeometry width="50" height="50" relative="1" as="geometry">
            <mxPoint x="480" y="430" as="sourcePoint" />
            <mxPoint x="290" y="430" as="targetPoint" />
          </mxGeometry>
        </mxCell>
        <mxCell id="jZs6XVhiPtIK_qM_JSvM-63" value="return User" style="edgeLabel;html=1;align=center;verticalAlign=middle;resizable=0;points=[];" parent="jZs6XVhiPtIK_qM_JSvM-62" vertex="1" connectable="0">
          <mxGeometry x="-0.3048" y="2" relative="1" as="geometry">
            <mxPoint x="-24" y="-12" as="offset" />
          </mxGeometry>
        </mxCell>
        <mxCell id="jZs6XVhiPtIK_qM_JSvM-64" value="" style="endArrow=openThin;html=1;rounded=0;dashed=1;endFill=0;exitX=-0.196;exitY=0.524;exitDx=0;exitDy=0;exitPerimeter=0;" parent="1" source="jZs6XVhiPtIK_qM_JSvM-23" edge="1">
          <mxGeometry width="50" height="50" relative="1" as="geometry">
            <mxPoint x="260" y="450" as="sourcePoint" />
            <mxPoint x="-227" y="450" as="targetPoint" />
          </mxGeometry>
        </mxCell>
        <mxCell id="jZs6XVhiPtIK_qM_JSvM-65" value="send to customer page" style="edgeLabel;html=1;align=center;verticalAlign=middle;resizable=0;points=[];" parent="jZs6XVhiPtIK_qM_JSvM-64" vertex="1" connectable="0">
          <mxGeometry x="-0.3048" y="2" relative="1" as="geometry">
            <mxPoint x="-200" y="-12" as="offset" />
          </mxGeometry>
        </mxCell>
        <mxCell id="jZs6XVhiPtIK_qM_JSvM-66" value="[User is Customer]" style="text;whiteSpace=wrap;html=1;" parent="1" vertex="1">
          <mxGeometry x="-230" y="410" width="130" height="40" as="geometry" />
        </mxCell>
        <mxCell id="jZs6XVhiPtIK_qM_JSvM-67" value="" style="endArrow=classic;html=1;rounded=0;exitX=1.339;exitY=0.724;exitDx=0;exitDy=0;exitPerimeter=0;" parent="1" source="jZs6XVhiPtIK_qM_JSvM-26" edge="1">
          <mxGeometry width="50" height="50" relative="1" as="geometry">
            <mxPoint x="300" y="480" as="sourcePoint" />
            <mxPoint x="720" y="500" as="targetPoint" />
          </mxGeometry>
        </mxCell>
        <mxCell id="jZs6XVhiPtIK_qM_JSvM-68" value="getEmployeeByUserID(userID)" style="edgeLabel;html=1;align=center;verticalAlign=middle;resizable=0;points=[];" parent="jZs6XVhiPtIK_qM_JSvM-67" vertex="1" connectable="0">
          <mxGeometry x="0.2121" y="-2" relative="1" as="geometry">
            <mxPoint x="-150" y="-12" as="offset" />
          </mxGeometry>
        </mxCell>
        <mxCell id="jZs6XVhiPtIK_qM_JSvM-70" value="" style="endArrow=none;dashed=1;html=1;dashPattern=1 3;strokeWidth=2;rounded=0;entryX=0.5;entryY=1;entryDx=0;entryDy=0;" parent="1" target="jZs6XVhiPtIK_qM_JSvM-69" edge="1">
          <mxGeometry width="50" height="50" relative="1" as="geometry">
            <mxPoint x="720" y="860" as="sourcePoint" />
            <mxPoint x="720" y="120" as="targetPoint" />
          </mxGeometry>
        </mxCell>
        <mxCell id="jZs6XVhiPtIK_qM_JSvM-69" value="" style="rounded=0;whiteSpace=wrap;html=1;" parent="1" vertex="1">
          <mxGeometry x="715" y="500" width="10" height="60" as="geometry" />
        </mxCell>
        <mxCell id="jZs6XVhiPtIK_qM_JSvM-71" value="" style="endArrow=classic;html=1;rounded=0;" parent="1" edge="1">
          <mxGeometry width="50" height="50" relative="1" as="geometry">
            <mxPoint x="726" y="508" as="sourcePoint" />
            <mxPoint x="930" y="508" as="targetPoint" />
          </mxGeometry>
        </mxCell>
        <mxCell id="jZs6XVhiPtIK_qM_JSvM-72" value="executeQuery()" style="edgeLabel;html=1;align=center;verticalAlign=middle;resizable=0;points=[];" parent="jZs6XVhiPtIK_qM_JSvM-71" vertex="1" connectable="0">
          <mxGeometry x="-0.1203" y="-1" relative="1" as="geometry">
            <mxPoint x="16" y="-11" as="offset" />
          </mxGeometry>
        </mxCell>
        <mxCell id="jZs6XVhiPtIK_qM_JSvM-74" value="" style="endArrow=none;dashed=1;html=1;dashPattern=1 3;strokeWidth=2;rounded=0;entryX=0.5;entryY=1;entryDx=0;entryDy=0;entryPerimeter=0;" parent="1" target="jZs6XVhiPtIK_qM_JSvM-73" edge="1">
          <mxGeometry width="50" height="50" relative="1" as="geometry">
            <mxPoint x="930" y="880" as="sourcePoint" />
            <mxPoint x="930" y="340" as="targetPoint" />
          </mxGeometry>
        </mxCell>
        <mxCell id="jZs6XVhiPtIK_qM_JSvM-73" value="" style="rounded=0;whiteSpace=wrap;html=1;" parent="1" vertex="1">
          <mxGeometry x="925" y="507" width="10" height="50" as="geometry" />
        </mxCell>
        <mxCell id="jZs6XVhiPtIK_qM_JSvM-75" value="" style="endArrow=openThin;html=1;rounded=0;dashed=1;endFill=0;exitX=-0.271;exitY=0.755;exitDx=0;exitDy=0;exitPerimeter=0;" parent="1" source="jZs6XVhiPtIK_qM_JSvM-73" edge="1">
          <mxGeometry width="50" height="50" relative="1" as="geometry">
            <mxPoint x="916" y="545" as="sourcePoint" />
            <mxPoint x="726" y="545" as="targetPoint" />
          </mxGeometry>
        </mxCell>
        <mxCell id="jZs6XVhiPtIK_qM_JSvM-76" value="return Result" style="edgeLabel;html=1;align=center;verticalAlign=middle;resizable=0;points=[];" parent="jZs6XVhiPtIK_qM_JSvM-75" vertex="1" connectable="0">
          <mxGeometry x="-0.3048" y="2" relative="1" as="geometry">
            <mxPoint x="-24" y="-12" as="offset" />
          </mxGeometry>
        </mxCell>
        <mxCell id="jZs6XVhiPtIK_qM_JSvM-77" value="" style="endArrow=open;html=1;rounded=0;dashed=1;endFill=0;exitX=-0.17;exitY=0.944;exitDx=0;exitDy=0;exitPerimeter=0;entryX=0.674;entryY=0.89;entryDx=0;entryDy=0;entryPerimeter=0;" parent="1" source="jZs6XVhiPtIK_qM_JSvM-69" target="jZs6XVhiPtIK_qM_JSvM-26" edge="1">
          <mxGeometry width="50" height="50" relative="1" as="geometry">
            <mxPoint x="710" y="550" as="sourcePoint" />
            <mxPoint x="300" y="550" as="targetPoint" />
          </mxGeometry>
        </mxCell>
        <mxCell id="jZs6XVhiPtIK_qM_JSvM-78" value="return Employee" style="edgeLabel;html=1;align=center;verticalAlign=middle;resizable=0;points=[];" parent="jZs6XVhiPtIK_qM_JSvM-77" vertex="1" connectable="0">
          <mxGeometry x="0.3166" y="-3" relative="1" as="geometry">
            <mxPoint x="-56" y="-7" as="offset" />
          </mxGeometry>
        </mxCell>
        <mxCell id="jZs6XVhiPtIK_qM_JSvM-79" value="" style="endArrow=open;html=1;rounded=0;dashed=1;endFill=0;exitX=-0.083;exitY=0.738;exitDx=0;exitDy=0;exitPerimeter=0;" parent="1" edge="1">
          <mxGeometry width="50" height="50" relative="1" as="geometry">
            <mxPoint x="264.16999999999985" y="567" as="sourcePoint" />
            <mxPoint x="-228.59739467075892" y="567" as="targetPoint" />
          </mxGeometry>
        </mxCell>
        <mxCell id="jZs6XVhiPtIK_qM_JSvM-80" value="send to Admin page" style="edgeLabel;html=1;align=center;verticalAlign=middle;resizable=0;points=[];" parent="jZs6XVhiPtIK_qM_JSvM-79" vertex="1" connectable="0">
          <mxGeometry x="-0.2373" y="1" relative="1" as="geometry">
            <mxPoint x="-192" y="-11" as="offset" />
          </mxGeometry>
        </mxCell>
        <mxCell id="jZs6XVhiPtIK_qM_JSvM-81" value="[Employee role is Admin]" style="text;html=1;align=center;verticalAlign=middle;resizable=0;points=[];autosize=1;strokeColor=none;fillColor=none;" parent="1" vertex="1">
          <mxGeometry x="-200" y="527" width="160" height="30" as="geometry" />
        </mxCell>
        <mxCell id="jZs6XVhiPtIK_qM_JSvM-82" value="" style="endArrow=open;html=1;rounded=0;dashed=1;endFill=0;exitX=-0.066;exitY=0.861;exitDx=0;exitDy=0;exitPerimeter=0;" parent="1" source="jZs6XVhiPtIK_qM_JSvM-23" edge="1">
          <mxGeometry width="50" height="50" relative="1" as="geometry">
            <mxPoint x="250" y="620" as="sourcePoint" />
            <mxPoint x="-230" y="620" as="targetPoint" />
          </mxGeometry>
        </mxCell>
        <mxCell id="jZs6XVhiPtIK_qM_JSvM-83" value="send to Inventory Manager page" style="edgeLabel;html=1;align=center;verticalAlign=middle;resizable=0;points=[];" parent="jZs6XVhiPtIK_qM_JSvM-82" vertex="1" connectable="0">
          <mxGeometry x="-0.2373" y="1" relative="1" as="geometry">
            <mxPoint x="-163" y="-11" as="offset" />
          </mxGeometry>
        </mxCell>
        <mxCell id="jZs6XVhiPtIK_qM_JSvM-84" value="[Employee role is Inventory Manager]" style="text;html=1;align=center;verticalAlign=middle;resizable=0;points=[];autosize=1;strokeColor=none;fillColor=none;" parent="1" vertex="1">
          <mxGeometry x="-200" y="580" width="220" height="30" as="geometry" />
        </mxCell>
        <mxCell id="jZs6XVhiPtIK_qM_JSvM-85" value="" style="endArrow=open;html=1;rounded=0;dashed=1;endFill=0;exitX=-0.014;exitY=0.981;exitDx=0;exitDy=0;exitPerimeter=0;" parent="1" source="jZs6XVhiPtIK_qM_JSvM-23" edge="1">
          <mxGeometry width="50" height="50" relative="1" as="geometry">
            <mxPoint x="260" y="680" as="sourcePoint" />
            <mxPoint x="-230" y="680" as="targetPoint" />
          </mxGeometry>
        </mxCell>
        <mxCell id="jZs6XVhiPtIK_qM_JSvM-86" value="send to Order Manager page" style="edgeLabel;html=1;align=center;verticalAlign=middle;resizable=0;points=[];" parent="jZs6XVhiPtIK_qM_JSvM-85" vertex="1" connectable="0">
          <mxGeometry x="-0.2373" y="1" relative="1" as="geometry">
            <mxPoint x="-163" y="-11" as="offset" />
          </mxGeometry>
        </mxCell>
        <mxCell id="jZs6XVhiPtIK_qM_JSvM-90" value="Alt" style="shape=umlFrame;whiteSpace=wrap;html=1;pointerEvents=0;" parent="1" vertex="1">
          <mxGeometry x="-340" y="320" width="830" height="420" as="geometry" />
        </mxCell>
        <mxCell id="jZs6XVhiPtIK_qM_JSvM-91" value="Alt" style="shape=umlFrame;whiteSpace=wrap;html=1;pointerEvents=0;" parent="1" vertex="1">
          <mxGeometry x="-310" y="410" width="790" height="320" as="geometry" />
        </mxCell>
        <mxCell id="jZs6XVhiPtIK_qM_JSvM-87" value="[Employee role is Order Manager]" style="text;html=1;align=center;verticalAlign=middle;resizable=0;points=[];autosize=1;strokeColor=none;fillColor=none;" parent="1" vertex="1">
          <mxGeometry x="-200" y="640" width="200" height="30" as="geometry" />
        </mxCell>
        <mxCell id="jZs6XVhiPtIK_qM_JSvM-92" value="[User is Employee]" style="text;whiteSpace=wrap;html=1;" parent="1" vertex="1">
          <mxGeometry x="-230" y="480" width="130" height="40" as="geometry" />
        </mxCell>
        <mxCell id="jZs6XVhiPtIK_qM_JSvM-93" value="Alt" style="shape=umlFrame;whiteSpace=wrap;html=1;pointerEvents=0;" parent="1" vertex="1">
          <mxGeometry x="-260" y="507" width="510" height="200" as="geometry" />
        </mxCell>
        <mxCell id="jZs6XVhiPtIK_qM_JSvM-94" value="[Else]" style="text;html=1;align=center;verticalAlign=middle;resizable=0;points=[];autosize=1;strokeColor=none;fillColor=none;" parent="1" vertex="1">
          <mxGeometry x="-240" y="385" width="50" height="30" as="geometry" />
        </mxCell>
        <mxCell id="PLSLTmwb6G0YA_U-e3H8-1" value="" style="endArrow=none;dashed=1;html=1;rounded=0;exitX=0.001;exitY=0.679;exitDx=0;exitDy=0;exitPerimeter=0;entryX=1.009;entryY=0.677;entryDx=0;entryDy=0;entryPerimeter=0;" edge="1" parent="1" source="jZs6XVhiPtIK_qM_JSvM-93" target="jZs6XVhiPtIK_qM_JSvM-93">
          <mxGeometry width="50" height="50" relative="1" as="geometry">
            <mxPoint x="-50" y="620" as="sourcePoint" />
            <mxPoint y="570" as="targetPoint" />
          </mxGeometry>
        </mxCell>
        <mxCell id="PLSLTmwb6G0YA_U-e3H8-2" value="" style="endArrow=none;dashed=1;html=1;rounded=0;exitX=0.004;exitY=0.381;exitDx=0;exitDy=0;exitPerimeter=0;entryX=1;entryY=0.365;entryDx=0;entryDy=0;entryPerimeter=0;" edge="1" parent="1" source="jZs6XVhiPtIK_qM_JSvM-93" target="jZs6XVhiPtIK_qM_JSvM-93">
          <mxGeometry width="50" height="50" relative="1" as="geometry">
            <mxPoint x="-249" y="653" as="sourcePoint" />
            <mxPoint x="265" y="652" as="targetPoint" />
          </mxGeometry>
        </mxCell>
        <mxCell id="PLSLTmwb6G0YA_U-e3H8-3" value="" style="endArrow=none;dashed=1;html=1;rounded=0;exitX=0.004;exitY=0.191;exitDx=0;exitDy=0;exitPerimeter=0;entryX=0.999;entryY=0.199;entryDx=0;entryDy=0;entryPerimeter=0;" edge="1" parent="1" source="jZs6XVhiPtIK_qM_JSvM-91" target="jZs6XVhiPtIK_qM_JSvM-91">
          <mxGeometry width="50" height="50" relative="1" as="geometry">
            <mxPoint x="-70" y="500" as="sourcePoint" />
            <mxPoint x="-20" y="450" as="targetPoint" />
          </mxGeometry>
        </mxCell>
        <mxCell id="PLSLTmwb6G0YA_U-e3H8-4" value="" style="endArrow=none;dashed=1;html=1;rounded=0;exitX=-0.002;exitY=0.168;exitDx=0;exitDy=0;exitPerimeter=0;entryX=1;entryY=0.174;entryDx=0;entryDy=0;entryPerimeter=0;" edge="1" parent="1" source="jZs6XVhiPtIK_qM_JSvM-90" target="jZs6XVhiPtIK_qM_JSvM-90">
          <mxGeometry width="50" height="50" relative="1" as="geometry">
            <mxPoint x="30" y="500" as="sourcePoint" />
            <mxPoint x="80" y="450" as="targetPoint" />
          </mxGeometry>
        </mxCell>
      </root>
    </mxGraphModel>
  </diagram>
</mxfile>
=======
<mxfile host="65bd71144e">
    <diagram name="Page-1" id="2YBvvXClWsGukQMizWep">
        <mxGraphModel dx="1445" dy="358" grid="1" gridSize="10" guides="1" tooltips="1" connect="1" arrows="1" fold="1" page="1" pageScale="1" pageWidth="850" pageHeight="1100" math="0" shadow="0">
            <root>
                <mxCell id="0"/>
                <mxCell id="1" parent="0"/>
                <mxCell id="jZs6XVhiPtIK_qM_JSvM-1" value="LogController" style="rounded=0;whiteSpace=wrap;html=1;" parent="1" vertex="1">
                    <mxGeometry x="210" y="60" width="120" height="60" as="geometry"/>
                </mxCell>
                <mxCell id="jZs6XVhiPtIK_qM_JSvM-2" value="UserDAO" style="rounded=0;whiteSpace=wrap;html=1;" parent="1" vertex="1">
                    <mxGeometry x="440" y="60" width="120" height="60" as="geometry"/>
                </mxCell>
                <mxCell id="jZs6XVhiPtIK_qM_JSvM-4" value="DB" style="shape=cylinder3;whiteSpace=wrap;html=1;boundedLbl=1;backgroundOutline=1;size=15;" parent="1" vertex="1">
                    <mxGeometry x="900" y="50" width="60" height="80" as="geometry"/>
                </mxCell>
                <mxCell id="jZs6XVhiPtIK_qM_JSvM-5" value="EmployeeDAO" style="rounded=0;whiteSpace=wrap;html=1;" parent="1" vertex="1">
                    <mxGeometry x="660" y="60" width="120" height="60" as="geometry"/>
                </mxCell>
                <mxCell id="jZs6XVhiPtIK_qM_JSvM-6" value="" style="endArrow=none;dashed=1;html=1;dashPattern=1 3;strokeWidth=2;rounded=0;entryX=0.5;entryY=1;entryDx=0;entryDy=0;" parent="1" source="jZs6XVhiPtIK_qM_JSvM-23" target="jZs6XVhiPtIK_qM_JSvM-1" edge="1">
                    <mxGeometry width="50" height="50" relative="1" as="geometry">
                        <mxPoint x="270" y="881.4545288085938" as="sourcePoint"/>
                        <mxPoint x="560" y="230" as="targetPoint"/>
                    </mxGeometry>
                </mxCell>
                <mxCell id="jZs6XVhiPtIK_qM_JSvM-7" value="" style="endArrow=none;dashed=1;html=1;dashPattern=1 3;strokeWidth=2;rounded=0;entryX=0.5;entryY=1;entryDx=0;entryDy=0;" parent="1" source="jZs6XVhiPtIK_qM_JSvM-30" target="jZs6XVhiPtIK_qM_JSvM-2" edge="1">
                    <mxGeometry width="50" height="50" relative="1" as="geometry">
                        <mxPoint x="500" y="880" as="sourcePoint"/>
                        <mxPoint x="280" y="130" as="targetPoint"/>
                    </mxGeometry>
                </mxCell>
                <mxCell id="jZs6XVhiPtIK_qM_JSvM-8" value="" style="endArrow=none;dashed=1;html=1;dashPattern=1 3;strokeWidth=2;rounded=0;entryX=0.5;entryY=1;entryDx=0;entryDy=0;" parent="1" source="jZs6XVhiPtIK_qM_JSvM-69" target="jZs6XVhiPtIK_qM_JSvM-5" edge="1">
                    <mxGeometry width="50" height="50" relative="1" as="geometry">
                        <mxPoint x="720" y="860" as="sourcePoint"/>
                        <mxPoint x="290" y="140" as="targetPoint"/>
                    </mxGeometry>
                </mxCell>
                <mxCell id="jZs6XVhiPtIK_qM_JSvM-9" value="" style="endArrow=none;dashed=1;html=1;dashPattern=1 3;strokeWidth=2;rounded=0;entryX=0.5;entryY=1;entryDx=0;entryDy=0;entryPerimeter=0;" parent="1" source="jZs6XVhiPtIK_qM_JSvM-35" target="jZs6XVhiPtIK_qM_JSvM-4" edge="1">
                    <mxGeometry width="50" height="50" relative="1" as="geometry">
                        <mxPoint x="930" y="880" as="sourcePoint"/>
                        <mxPoint x="300" y="150" as="targetPoint"/>
                    </mxGeometry>
                </mxCell>
                <mxCell id="jZs6XVhiPtIK_qM_JSvM-14" value="Login Page" style="rounded=0;whiteSpace=wrap;html=1;" parent="1" vertex="1">
                    <mxGeometry x="-40" y="60" width="120" height="60" as="geometry"/>
                </mxCell>
                <mxCell id="jZs6XVhiPtIK_qM_JSvM-15" value="" style="endArrow=none;dashed=1;html=1;dashPattern=1 3;strokeWidth=2;rounded=0;entryX=0.5;entryY=1;entryDx=0;entryDy=0;" parent="1" source="jZs6XVhiPtIK_qM_JSvM-43" target="jZs6XVhiPtIK_qM_JSvM-14" edge="1">
                    <mxGeometry width="50" height="50" relative="1" as="geometry">
                        <mxPoint x="20" y="880" as="sourcePoint"/>
                        <mxPoint x="280" y="130" as="targetPoint"/>
                    </mxGeometry>
                </mxCell>
                <mxCell id="jZs6XVhiPtIK_qM_JSvM-16" value="Actor" style="shape=umlActor;verticalLabelPosition=bottom;verticalAlign=top;html=1;outlineConnect=0;" parent="1" vertex="1">
                    <mxGeometry x="-250" y="60" width="30" height="60" as="geometry"/>
                </mxCell>
                <mxCell id="jZs6XVhiPtIK_qM_JSvM-17" value="" style="endArrow=none;dashed=1;html=1;dashPattern=1 3;strokeWidth=2;rounded=0;" parent="1" edge="1">
                    <mxGeometry width="50" height="50" relative="1" as="geometry">
                        <mxPoint x="-240" y="870" as="sourcePoint"/>
                        <mxPoint x="-240" y="140" as="targetPoint"/>
                    </mxGeometry>
                </mxCell>
                <mxCell id="jZs6XVhiPtIK_qM_JSvM-19" value="" style="endArrow=classic;html=1;rounded=0;" parent="1" edge="1">
                    <mxGeometry width="50" height="50" relative="1" as="geometry">
                        <mxPoint x="-240" y="170" as="sourcePoint"/>
                        <mxPoint x="20" y="170" as="targetPoint"/>
                    </mxGeometry>
                </mxCell>
                <mxCell id="jZs6XVhiPtIK_qM_JSvM-20" value="Input Username and Password" style="edgeLabel;html=1;align=center;verticalAlign=middle;resizable=0;points=[];" parent="jZs6XVhiPtIK_qM_JSvM-19" vertex="1" connectable="0">
                    <mxGeometry x="-0.0831" y="-1" relative="1" as="geometry">
                        <mxPoint x="11" y="-11" as="offset"/>
                    </mxGeometry>
                </mxCell>
                <mxCell id="jZs6XVhiPtIK_qM_JSvM-21" value="" style="endArrow=classic;html=1;rounded=0;" parent="1" edge="1">
                    <mxGeometry width="50" height="50" relative="1" as="geometry">
                        <mxPoint x="20" y="190" as="sourcePoint"/>
                        <mxPoint x="270" y="190" as="targetPoint"/>
                    </mxGeometry>
                </mxCell>
                <mxCell id="jZs6XVhiPtIK_qM_JSvM-22" value="doPost()" style="edgeLabel;html=1;align=center;verticalAlign=middle;resizable=0;points=[];" parent="jZs6XVhiPtIK_qM_JSvM-21" vertex="1" connectable="0">
                    <mxGeometry x="0.0136" y="-3" relative="1" as="geometry">
                        <mxPoint y="-13" as="offset"/>
                    </mxGeometry>
                </mxCell>
                <mxCell id="jZs6XVhiPtIK_qM_JSvM-24" value="" style="endArrow=none;dashed=1;html=1;dashPattern=1 3;strokeWidth=2;rounded=0;entryX=0.5;entryY=1;entryDx=0;entryDy=0;" parent="1" target="jZs6XVhiPtIK_qM_JSvM-23" edge="1">
                    <mxGeometry width="50" height="50" relative="1" as="geometry">
                        <mxPoint x="270" y="881.4545288085938" as="sourcePoint"/>
                        <mxPoint x="270" y="120" as="targetPoint"/>
                    </mxGeometry>
                </mxCell>
                <mxCell id="jZs6XVhiPtIK_qM_JSvM-23" value="" style="rounded=0;whiteSpace=wrap;html=1;" parent="1" vertex="1">
                    <mxGeometry x="265" y="190" width="10" height="500" as="geometry"/>
                </mxCell>
                <mxCell id="jZs6XVhiPtIK_qM_JSvM-25" value="" style="endArrow=classic;html=1;rounded=0;" parent="1" edge="1">
                    <mxGeometry width="50" height="50" relative="1" as="geometry">
                        <mxPoint x="280" y="200" as="sourcePoint"/>
                        <mxPoint x="290" y="260" as="targetPoint"/>
                        <Array as="points">
                            <mxPoint x="330" y="200"/>
                            <mxPoint x="330" y="260"/>
                        </Array>
                    </mxGeometry>
                </mxCell>
                <mxCell id="jZs6XVhiPtIK_qM_JSvM-27" value="login()" style="edgeLabel;html=1;align=center;verticalAlign=middle;resizable=0;points=[];" parent="jZs6XVhiPtIK_qM_JSvM-25" vertex="1" connectable="0">
                    <mxGeometry x="-0.0028" y="1" relative="1" as="geometry">
                        <mxPoint as="offset"/>
                    </mxGeometry>
                </mxCell>
                <mxCell id="jZs6XVhiPtIK_qM_JSvM-26" value="" style="rounded=0;whiteSpace=wrap;html=1;" parent="1" vertex="1">
                    <mxGeometry x="275" y="240" width="10" height="320" as="geometry"/>
                </mxCell>
                <mxCell id="jZs6XVhiPtIK_qM_JSvM-28" value="" style="endArrow=classic;html=1;rounded=0;" parent="1" edge="1">
                    <mxGeometry width="50" height="50" relative="1" as="geometry">
                        <mxPoint x="290" y="280" as="sourcePoint"/>
                        <mxPoint x="490" y="280" as="targetPoint"/>
                    </mxGeometry>
                </mxCell>
                <mxCell id="jZs6XVhiPtIK_qM_JSvM-29" value="getUser(us, pw)" style="edgeLabel;html=1;align=center;verticalAlign=middle;resizable=0;points=[];" parent="jZs6XVhiPtIK_qM_JSvM-28" vertex="1" connectable="0">
                    <mxGeometry x="0.0491" y="1" relative="1" as="geometry">
                        <mxPoint y="-9" as="offset"/>
                    </mxGeometry>
                </mxCell>
                <mxCell id="jZs6XVhiPtIK_qM_JSvM-31" value="" style="endArrow=none;dashed=1;html=1;dashPattern=1 3;strokeWidth=2;rounded=0;entryX=0.5;entryY=1;entryDx=0;entryDy=0;" parent="1" target="jZs6XVhiPtIK_qM_JSvM-30" edge="1">
                    <mxGeometry width="50" height="50" relative="1" as="geometry">
                        <mxPoint x="500" y="880" as="sourcePoint"/>
                        <mxPoint x="500" y="120" as="targetPoint"/>
                    </mxGeometry>
                </mxCell>
                <mxCell id="jZs6XVhiPtIK_qM_JSvM-30" value="" style="rounded=0;whiteSpace=wrap;html=1;" parent="1" vertex="1">
                    <mxGeometry x="495" y="280" width="10" height="160" as="geometry"/>
                </mxCell>
                <mxCell id="jZs6XVhiPtIK_qM_JSvM-32" value="" style="endArrow=classic;html=1;rounded=0;entryX=0;entryY=0;entryDx=0;entryDy=0;" parent="1" target="jZs6XVhiPtIK_qM_JSvM-35" edge="1">
                    <mxGeometry width="50" height="50" relative="1" as="geometry">
                        <mxPoint x="510" y="290" as="sourcePoint"/>
                        <mxPoint x="920" y="290" as="targetPoint"/>
                    </mxGeometry>
                </mxCell>
                <mxCell id="jZs6XVhiPtIK_qM_JSvM-33" value="executeQuery()" style="edgeLabel;html=1;align=center;verticalAlign=middle;resizable=0;points=[];" parent="jZs6XVhiPtIK_qM_JSvM-32" vertex="1" connectable="0">
                    <mxGeometry x="-0.1126" y="2" relative="1" as="geometry">
                        <mxPoint x="-92" y="-8" as="offset"/>
                    </mxGeometry>
                </mxCell>
                <mxCell id="jZs6XVhiPtIK_qM_JSvM-36" value="" style="endArrow=none;dashed=1;html=1;dashPattern=1 3;strokeWidth=2;rounded=0;entryX=0.5;entryY=1;entryDx=0;entryDy=0;entryPerimeter=0;" parent="1" source="jZs6XVhiPtIK_qM_JSvM-73" target="jZs6XVhiPtIK_qM_JSvM-35" edge="1">
                    <mxGeometry width="50" height="50" relative="1" as="geometry">
                        <mxPoint x="930" y="880" as="sourcePoint"/>
                        <mxPoint x="930" y="130" as="targetPoint"/>
                    </mxGeometry>
                </mxCell>
                <mxCell id="jZs6XVhiPtIK_qM_JSvM-35" value="" style="rounded=0;whiteSpace=wrap;html=1;" parent="1" vertex="1">
                    <mxGeometry x="925" y="290" width="10" height="50" as="geometry"/>
                </mxCell>
                <mxCell id="jZs6XVhiPtIK_qM_JSvM-37" value="" style="endArrow=openThin;html=1;rounded=0;dashed=1;endFill=0;exitX=-0.125;exitY=0.824;exitDx=0;exitDy=0;exitPerimeter=0;" parent="1" source="jZs6XVhiPtIK_qM_JSvM-35" edge="1">
                    <mxGeometry width="50" height="50" relative="1" as="geometry">
                        <mxPoint x="920" y="330" as="sourcePoint"/>
                        <mxPoint x="510" y="330" as="targetPoint"/>
                    </mxGeometry>
                </mxCell>
                <mxCell id="jZs6XVhiPtIK_qM_JSvM-38" value="return Result" style="edgeLabel;html=1;align=center;verticalAlign=middle;resizable=0;points=[];" parent="jZs6XVhiPtIK_qM_JSvM-37" vertex="1" connectable="0">
                    <mxGeometry x="-0.3048" y="2" relative="1" as="geometry">
                        <mxPoint x="53" y="-12" as="offset"/>
                    </mxGeometry>
                </mxCell>
                <mxCell id="jZs6XVhiPtIK_qM_JSvM-39" value="" style="endArrow=openThin;html=1;rounded=0;dashed=1;endFill=0;exitX=0;exitY=0.5;exitDx=0;exitDy=0;" parent="1" source="jZs6XVhiPtIK_qM_JSvM-30" edge="1">
                    <mxGeometry width="50" height="50" relative="1" as="geometry">
                        <mxPoint x="480" y="360" as="sourcePoint"/>
                        <mxPoint x="289.6774193548387" y="360" as="targetPoint"/>
                    </mxGeometry>
                </mxCell>
                <mxCell id="jZs6XVhiPtIK_qM_JSvM-40" value="return null" style="edgeLabel;html=1;align=center;verticalAlign=middle;resizable=0;points=[];" parent="jZs6XVhiPtIK_qM_JSvM-39" vertex="1" connectable="0">
                    <mxGeometry x="-0.3048" y="2" relative="1" as="geometry">
                        <mxPoint x="-24" y="-12" as="offset"/>
                    </mxGeometry>
                </mxCell>
                <mxCell id="jZs6XVhiPtIK_qM_JSvM-44" value="" style="endArrow=none;dashed=1;html=1;dashPattern=1 3;strokeWidth=2;rounded=0;entryX=0.5;entryY=1;entryDx=0;entryDy=0;" parent="1" target="jZs6XVhiPtIK_qM_JSvM-43" edge="1">
                    <mxGeometry width="50" height="50" relative="1" as="geometry">
                        <mxPoint x="20" y="880" as="sourcePoint"/>
                        <mxPoint x="20" y="120" as="targetPoint"/>
                    </mxGeometry>
                </mxCell>
                <mxCell id="jZs6XVhiPtIK_qM_JSvM-43" value="" style="rounded=0;whiteSpace=wrap;html=1;" parent="1" vertex="1">
                    <mxGeometry x="15" y="170" width="10" height="220" as="geometry"/>
                </mxCell>
                <mxCell id="jZs6XVhiPtIK_qM_JSvM-45" value="" style="endArrow=openThin;html=1;rounded=0;dashed=1;endFill=0;exitX=-0.063;exitY=0.36;exitDx=0;exitDy=0;exitPerimeter=0;entryX=1.18;entryY=0.914;entryDx=0;entryDy=0;entryPerimeter=0;" parent="1" source="jZs6XVhiPtIK_qM_JSvM-23" target="jZs6XVhiPtIK_qM_JSvM-43" edge="1">
                    <mxGeometry width="50" height="50" relative="1" as="geometry">
                        <mxPoint x="260" y="370" as="sourcePoint"/>
                        <mxPoint x="33" y="370" as="targetPoint"/>
                    </mxGeometry>
                </mxCell>
                <mxCell id="jZs6XVhiPtIK_qM_JSvM-46" value="return login page" style="edgeLabel;html=1;align=center;verticalAlign=middle;resizable=0;points=[];" parent="jZs6XVhiPtIK_qM_JSvM-45" vertex="1" connectable="0">
                    <mxGeometry x="-0.3048" y="2" relative="1" as="geometry">
                        <mxPoint x="-24" y="-12" as="offset"/>
                    </mxGeometry>
                </mxCell>
                <mxCell id="jZs6XVhiPtIK_qM_JSvM-47" value="" style="endArrow=openThin;html=1;rounded=0;dashed=1;endFill=0;exitX=-0.207;exitY=0.95;exitDx=0;exitDy=0;exitPerimeter=0;" parent="1" source="jZs6XVhiPtIK_qM_JSvM-43" edge="1">
                    <mxGeometry width="50" height="50" relative="1" as="geometry">
                        <mxPoint y="380" as="sourcePoint"/>
                        <mxPoint x="-230" y="380" as="targetPoint"/>
                    </mxGeometry>
                </mxCell>
                <mxCell id="jZs6XVhiPtIK_qM_JSvM-48" value="send login error" style="edgeLabel;html=1;align=center;verticalAlign=middle;resizable=0;points=[];" parent="jZs6XVhiPtIK_qM_JSvM-47" vertex="1" connectable="0">
                    <mxGeometry x="-0.3048" y="2" relative="1" as="geometry">
                        <mxPoint x="-24" y="-12" as="offset"/>
                    </mxGeometry>
                </mxCell>
                <mxCell id="jZs6XVhiPtIK_qM_JSvM-53" value="[Account doesn't exist]" style="text;html=1;align=center;verticalAlign=middle;resizable=0;points=[];autosize=1;strokeColor=none;fillColor=none;" parent="1" vertex="1">
                    <mxGeometry x="-240" y="330" width="140" height="30" as="geometry"/>
                </mxCell>
                <mxCell id="jZs6XVhiPtIK_qM_JSvM-62" value="" style="endArrow=openThin;html=1;rounded=0;dashed=1;endFill=0;exitX=-0.224;exitY=0.933;exitDx=0;exitDy=0;exitPerimeter=0;" parent="1" source="jZs6XVhiPtIK_qM_JSvM-30" edge="1">
                    <mxGeometry width="50" height="50" relative="1" as="geometry">
                        <mxPoint x="480" y="430" as="sourcePoint"/>
                        <mxPoint x="290" y="430" as="targetPoint"/>
                    </mxGeometry>
                </mxCell>
                <mxCell id="jZs6XVhiPtIK_qM_JSvM-63" value="return User" style="edgeLabel;html=1;align=center;verticalAlign=middle;resizable=0;points=[];" parent="jZs6XVhiPtIK_qM_JSvM-62" vertex="1" connectable="0">
                    <mxGeometry x="-0.3048" y="2" relative="1" as="geometry">
                        <mxPoint x="-24" y="-12" as="offset"/>
                    </mxGeometry>
                </mxCell>
                <mxCell id="jZs6XVhiPtIK_qM_JSvM-64" value="" style="endArrow=openThin;html=1;rounded=0;dashed=1;endFill=0;exitX=-0.196;exitY=0.524;exitDx=0;exitDy=0;exitPerimeter=0;" parent="1" source="jZs6XVhiPtIK_qM_JSvM-23" edge="1">
                    <mxGeometry width="50" height="50" relative="1" as="geometry">
                        <mxPoint x="260" y="450" as="sourcePoint"/>
                        <mxPoint x="-227" y="450" as="targetPoint"/>
                    </mxGeometry>
                </mxCell>
                <mxCell id="jZs6XVhiPtIK_qM_JSvM-65" value="send to customer page" style="edgeLabel;html=1;align=center;verticalAlign=middle;resizable=0;points=[];" parent="jZs6XVhiPtIK_qM_JSvM-64" vertex="1" connectable="0">
                    <mxGeometry x="-0.3048" y="2" relative="1" as="geometry">
                        <mxPoint x="-200" y="-12" as="offset"/>
                    </mxGeometry>
                </mxCell>
                <mxCell id="jZs6XVhiPtIK_qM_JSvM-66" value="[User is Customer]" style="text;whiteSpace=wrap;html=1;" parent="1" vertex="1">
                    <mxGeometry x="-230" y="410" width="130" height="40" as="geometry"/>
                </mxCell>
                <mxCell id="jZs6XVhiPtIK_qM_JSvM-67" value="" style="endArrow=classic;html=1;rounded=0;exitX=0.991;exitY=0.813;exitDx=0;exitDy=0;exitPerimeter=0;" parent="1" source="jZs6XVhiPtIK_qM_JSvM-26" edge="1">
                    <mxGeometry width="50" height="50" relative="1" as="geometry">
                        <mxPoint x="300" y="480" as="sourcePoint"/>
                        <mxPoint x="720" y="500" as="targetPoint"/>
                    </mxGeometry>
                </mxCell>
                <mxCell id="jZs6XVhiPtIK_qM_JSvM-68" value="getEmployeeByUserID(userID)" style="edgeLabel;html=1;align=center;verticalAlign=middle;resizable=0;points=[];" parent="jZs6XVhiPtIK_qM_JSvM-67" vertex="1" connectable="0">
                    <mxGeometry x="0.2121" y="-2" relative="1" as="geometry">
                        <mxPoint x="-150" y="-12" as="offset"/>
                    </mxGeometry>
                </mxCell>
                <mxCell id="jZs6XVhiPtIK_qM_JSvM-70" value="" style="endArrow=none;dashed=1;html=1;dashPattern=1 3;strokeWidth=2;rounded=0;entryX=0.5;entryY=1;entryDx=0;entryDy=0;" parent="1" target="jZs6XVhiPtIK_qM_JSvM-69" edge="1">
                    <mxGeometry width="50" height="50" relative="1" as="geometry">
                        <mxPoint x="720" y="860" as="sourcePoint"/>
                        <mxPoint x="720" y="120" as="targetPoint"/>
                    </mxGeometry>
                </mxCell>
                <mxCell id="jZs6XVhiPtIK_qM_JSvM-69" value="" style="rounded=0;whiteSpace=wrap;html=1;" parent="1" vertex="1">
                    <mxGeometry x="715" y="500" width="10" height="60" as="geometry"/>
                </mxCell>
                <mxCell id="jZs6XVhiPtIK_qM_JSvM-71" value="" style="endArrow=classic;html=1;rounded=0;" parent="1" edge="1">
                    <mxGeometry width="50" height="50" relative="1" as="geometry">
                        <mxPoint x="726" y="508" as="sourcePoint"/>
                        <mxPoint x="930" y="508" as="targetPoint"/>
                    </mxGeometry>
                </mxCell>
                <mxCell id="jZs6XVhiPtIK_qM_JSvM-72" value="executeQuery()" style="edgeLabel;html=1;align=center;verticalAlign=middle;resizable=0;points=[];" parent="jZs6XVhiPtIK_qM_JSvM-71" vertex="1" connectable="0">
                    <mxGeometry x="-0.1203" y="-1" relative="1" as="geometry">
                        <mxPoint x="16" y="-11" as="offset"/>
                    </mxGeometry>
                </mxCell>
                <mxCell id="jZs6XVhiPtIK_qM_JSvM-74" value="" style="endArrow=none;dashed=1;html=1;dashPattern=1 3;strokeWidth=2;rounded=0;entryX=0.5;entryY=1;entryDx=0;entryDy=0;entryPerimeter=0;" parent="1" target="jZs6XVhiPtIK_qM_JSvM-73" edge="1">
                    <mxGeometry width="50" height="50" relative="1" as="geometry">
                        <mxPoint x="930" y="880" as="sourcePoint"/>
                        <mxPoint x="930" y="340" as="targetPoint"/>
                    </mxGeometry>
                </mxCell>
                <mxCell id="jZs6XVhiPtIK_qM_JSvM-73" value="" style="rounded=0;whiteSpace=wrap;html=1;" parent="1" vertex="1">
                    <mxGeometry x="925" y="507" width="10" height="50" as="geometry"/>
                </mxCell>
                <mxCell id="jZs6XVhiPtIK_qM_JSvM-75" value="" style="endArrow=openThin;html=1;rounded=0;dashed=1;endFill=0;exitX=-0.271;exitY=0.755;exitDx=0;exitDy=0;exitPerimeter=0;" parent="1" source="jZs6XVhiPtIK_qM_JSvM-73" edge="1">
                    <mxGeometry width="50" height="50" relative="1" as="geometry">
                        <mxPoint x="916" y="545" as="sourcePoint"/>
                        <mxPoint x="726" y="545" as="targetPoint"/>
                    </mxGeometry>
                </mxCell>
                <mxCell id="jZs6XVhiPtIK_qM_JSvM-76" value="return Result" style="edgeLabel;html=1;align=center;verticalAlign=middle;resizable=0;points=[];" parent="jZs6XVhiPtIK_qM_JSvM-75" vertex="1" connectable="0">
                    <mxGeometry x="-0.3048" y="2" relative="1" as="geometry">
                        <mxPoint x="-24" y="-12" as="offset"/>
                    </mxGeometry>
                </mxCell>
                <mxCell id="jZs6XVhiPtIK_qM_JSvM-77" value="" style="endArrow=open;html=1;rounded=0;dashed=1;endFill=0;exitX=-0.17;exitY=0.944;exitDx=0;exitDy=0;exitPerimeter=0;entryX=0.994;entryY=0.987;entryDx=0;entryDy=0;entryPerimeter=0;" parent="1" source="jZs6XVhiPtIK_qM_JSvM-69" target="jZs6XVhiPtIK_qM_JSvM-26" edge="1">
                    <mxGeometry width="50" height="50" relative="1" as="geometry">
                        <mxPoint x="710" y="550" as="sourcePoint"/>
                        <mxPoint x="300" y="550" as="targetPoint"/>
                    </mxGeometry>
                </mxCell>
                <mxCell id="jZs6XVhiPtIK_qM_JSvM-78" value="return Employee" style="edgeLabel;html=1;align=center;verticalAlign=middle;resizable=0;points=[];" parent="jZs6XVhiPtIK_qM_JSvM-77" vertex="1" connectable="0">
                    <mxGeometry x="0.3166" y="-3" relative="1" as="geometry">
                        <mxPoint x="-56" y="-7" as="offset"/>
                    </mxGeometry>
                </mxCell>
                <mxCell id="jZs6XVhiPtIK_qM_JSvM-79" value="" style="endArrow=open;html=1;rounded=0;dashed=1;endFill=0;exitX=-0.083;exitY=0.738;exitDx=0;exitDy=0;exitPerimeter=0;" parent="1" edge="1">
                    <mxGeometry width="50" height="50" relative="1" as="geometry">
                        <mxPoint x="264.16999999999985" y="567" as="sourcePoint"/>
                        <mxPoint x="-228.59739467075892" y="567" as="targetPoint"/>
                    </mxGeometry>
                </mxCell>
                <mxCell id="jZs6XVhiPtIK_qM_JSvM-80" value="send to Admin page" style="edgeLabel;html=1;align=center;verticalAlign=middle;resizable=0;points=[];" parent="jZs6XVhiPtIK_qM_JSvM-79" vertex="1" connectable="0">
                    <mxGeometry x="-0.2373" y="1" relative="1" as="geometry">
                        <mxPoint x="-192" y="-11" as="offset"/>
                    </mxGeometry>
                </mxCell>
                <mxCell id="jZs6XVhiPtIK_qM_JSvM-81" value="[Employee role is Admin]" style="text;html=1;align=center;verticalAlign=middle;resizable=0;points=[];autosize=1;strokeColor=none;fillColor=none;" parent="1" vertex="1">
                    <mxGeometry x="-200" y="527" width="160" height="30" as="geometry"/>
                </mxCell>
                <mxCell id="jZs6XVhiPtIK_qM_JSvM-82" value="" style="endArrow=open;html=1;rounded=0;dashed=1;endFill=0;exitX=-0.066;exitY=0.861;exitDx=0;exitDy=0;exitPerimeter=0;" parent="1" source="jZs6XVhiPtIK_qM_JSvM-23" edge="1">
                    <mxGeometry width="50" height="50" relative="1" as="geometry">
                        <mxPoint x="250" y="620" as="sourcePoint"/>
                        <mxPoint x="-230" y="620" as="targetPoint"/>
                    </mxGeometry>
                </mxCell>
                <mxCell id="jZs6XVhiPtIK_qM_JSvM-83" value="send to Inventory Manager page" style="edgeLabel;html=1;align=center;verticalAlign=middle;resizable=0;points=[];" parent="jZs6XVhiPtIK_qM_JSvM-82" vertex="1" connectable="0">
                    <mxGeometry x="-0.2373" y="1" relative="1" as="geometry">
                        <mxPoint x="-163" y="-11" as="offset"/>
                    </mxGeometry>
                </mxCell>
                <mxCell id="jZs6XVhiPtIK_qM_JSvM-84" value="[Employee role is Inventory Manager]" style="text;html=1;align=center;verticalAlign=middle;resizable=0;points=[];autosize=1;strokeColor=none;fillColor=none;" parent="1" vertex="1">
                    <mxGeometry x="-200" y="580" width="220" height="30" as="geometry"/>
                </mxCell>
                <mxCell id="jZs6XVhiPtIK_qM_JSvM-85" value="" style="endArrow=open;html=1;rounded=0;dashed=1;endFill=0;exitX=-0.014;exitY=0.981;exitDx=0;exitDy=0;exitPerimeter=0;" parent="1" source="jZs6XVhiPtIK_qM_JSvM-23" edge="1">
                    <mxGeometry width="50" height="50" relative="1" as="geometry">
                        <mxPoint x="260" y="680" as="sourcePoint"/>
                        <mxPoint x="-230" y="680" as="targetPoint"/>
                    </mxGeometry>
                </mxCell>
                <mxCell id="jZs6XVhiPtIK_qM_JSvM-86" value="send to Order Manager page" style="edgeLabel;html=1;align=center;verticalAlign=middle;resizable=0;points=[];" parent="jZs6XVhiPtIK_qM_JSvM-85" vertex="1" connectable="0">
                    <mxGeometry x="-0.2373" y="1" relative="1" as="geometry">
                        <mxPoint x="-163" y="-11" as="offset"/>
                    </mxGeometry>
                </mxCell>
                <mxCell id="jZs6XVhiPtIK_qM_JSvM-90" value="Alt" style="shape=umlFrame;whiteSpace=wrap;html=1;pointerEvents=0;" parent="1" vertex="1">
                    <mxGeometry x="-340" y="320" width="830" height="420" as="geometry"/>
                </mxCell>
                <mxCell id="jZs6XVhiPtIK_qM_JSvM-91" value="Alt" style="shape=umlFrame;whiteSpace=wrap;html=1;pointerEvents=0;" parent="1" vertex="1">
                    <mxGeometry x="-310" y="410" width="790" height="320" as="geometry"/>
                </mxCell>
                <mxCell id="jZs6XVhiPtIK_qM_JSvM-87" value="[Employee role is Order Manager]" style="text;html=1;align=center;verticalAlign=middle;resizable=0;points=[];autosize=1;strokeColor=none;fillColor=none;" parent="1" vertex="1">
                    <mxGeometry x="-200" y="640" width="200" height="30" as="geometry"/>
                </mxCell>
                <mxCell id="jZs6XVhiPtIK_qM_JSvM-92" value="[User is Employee]" style="text;whiteSpace=wrap;html=1;" parent="1" vertex="1">
                    <mxGeometry x="-230" y="480" width="130" height="40" as="geometry"/>
                </mxCell>
                <mxCell id="jZs6XVhiPtIK_qM_JSvM-93" value="Alt" style="shape=umlFrame;whiteSpace=wrap;html=1;pointerEvents=0;" parent="1" vertex="1">
                    <mxGeometry x="-260" y="507" width="510" height="200" as="geometry"/>
                </mxCell>
                <mxCell id="jZs6XVhiPtIK_qM_JSvM-94" value="[Else]" style="text;html=1;align=center;verticalAlign=middle;resizable=0;points=[];autosize=1;strokeColor=none;fillColor=none;" parent="1" vertex="1">
                    <mxGeometry x="-238" y="380" width="50" height="30" as="geometry"/>
                </mxCell>
            </root>
        </mxGraphModel>
    </diagram>
</mxfile>
>>>>>>> 47424fa5c9821d5ff9e728c597d2f10d6dc43760
